<?xml version="1.0" encoding="UTF-8"?>
<svg width="15px" height="9px" viewBox="0 0 15 9" version="1.1" xmlns="http://www.w3.org/2000/svg" xmlns:xlink="http://www.w3.org/1999/xlink">
    <!-- Generator: Sketch 47.1 (45422) - http://www.bohemiancoding.com/sketch -->
    <title>Chevron</title>
    <desc>Created with Sketch.</desc>
    <defs></defs>
    <g id="Symbols" stroke="none" stroke-width="1" fill="none" fill-rule="evenodd">
        <g id="Desktop-/-Mast" transform="translate(-401.000000, -75.000000)" fill="#DA262D">
            <g id="Main-Nav">
                <g transform="translate(344.000000, 70.000000)">
                    <path d="M68.5792561,9.41071954 C68.5792561,9.29464798 68.5212203,9.16406746 68.4341666,9.07701379 L61.6729978,2.31584501 C61.5859442,2.22879134 61.4553636,2.17075556 61.3392921,2.17075556 C61.2232205,2.17075556 61.09264,2.22879134 61.0055863,2.31584501 L60.280139,3.04129231 C60.1930854,3.12834598 60.1350496,3.2589265 60.1350496,3.37499806 C60.1350496,3.49106963 60.1930854,3.62165014 60.280139,3.70870382 L65.9821548,9.41071954 L60.280139,15.1127353 C60.1930854,15.1997889 60.1350496,15.3303695 60.1350496,15.446441 C60.1350496,15.5770215 60.1930854,15.6930931 60.280139,15.7801468 L61.0055863,16.5055941 C61.09264,16.5926477 61.2232205,16.6506835 61.3392921,16.6506835 C61.4553636,16.6506835 61.5859442,16.5926477 61.6729978,16.5055941 L68.4341666,9.7444253 C68.5212203,9.65737162 68.5792561,9.52679111 68.5792561,9.41071954 Z" id="Chevron" transform="translate(64.357153, 9.410720) rotate(-270.000000) translate(-64.357153, -9.410720) "></path>
                </g>
            </g>
        </g>
    </g>
</svg>