<?xml version="1.0" encoding="UTF-8"?>
<svg width="10px" height="6px" viewBox="0 0 10 6" version="1.1" xmlns="http://www.w3.org/2000/svg" xmlns:xlink="http://www.w3.org/1999/xlink">
    <!-- Generator: Sketch 47.1 (45422) - http://www.bohemiancoding.com/sketch -->
    <title>Chevron</title>
    <desc>Created with Sketch.</desc>
    <defs></defs>
    <g id="Symbols" stroke="none" stroke-width="1" fill="none" fill-rule="evenodd">
        <g id="Desktop-/-Mast" transform="translate(-1039.000000, -29.000000)" fill="#999999">
            <g id="Group-4">
                <g transform="translate(896.000000, 24.000000)">
                    <path d="M151,8 C151,7.91983968 150.958763,7.82965932 150.896907,7.76953908 L146.092784,3.1002004 C146.030928,3.04008016 145.938144,3 145.85567,3 C145.773196,3 145.680412,3.04008016 145.618557,3.1002004 L145.103093,3.6012024 C145.041237,3.66132265 145,3.75150301 145,3.83166333 C145,3.91182365 145.041237,4.00200401 145.103093,4.06212425 L149.154639,8 L145.103093,11.9378758 C145.041237,11.997996 145,12.0881764 145,12.1683367 C145,12.258517 145.041237,12.3386774 145.103093,12.3987976 L145.618557,12.8997996 C145.680412,12.9599198 145.773196,13 145.85567,13 C145.938144,13 146.030928,12.9599198 146.092784,12.8997996 L150.896907,8.23046092 C150.958763,8.17034068 151,8.08016032 151,8 Z" id="Chevron" transform="translate(148.000000, 8.000000) rotate(-270.000000) translate(-148.000000, -8.000000) "></path>
                </g>
            </g>
        </g>
    </g>
</svg>