<?xml version="1.0" encoding="UTF-8"?>
<svg width="6px" height="10px" viewBox="0 0 6 10" version="1.1" xmlns="http://www.w3.org/2000/svg" xmlns:xlink="http://www.w3.org/1999/xlink">
    <!-- Generator: Sketch 47.1 (45422) - http://www.bohemiancoding.com/sketch -->
    <title>Chevron</title>
    <desc>Created with Sketch.</desc>
    <defs></defs>
    <g id="Symbols" stroke="none" stroke-width="1" fill="none" fill-rule="evenodd">
        <g id="UI-/-Button-Primary" transform="translate(-195.000000, -17.000000)" fill="#FFFFFF">
            <g id="Group" transform="translate(93.000000, 14.000000)">
                <path d="M108,8 C108,7.91983968 107.958763,7.82965932 107.896907,7.76953908 L103.092784,3.1002004 C103.030928,3.04008016 102.938144,3 102.85567,3 C102.773196,3 102.680412,3.04008016 102.618557,3.1002004 L102.103093,3.6012024 C102.041237,3.66132265 102,3.75150301 102,3.83166333 C102,3.91182365 102.041237,4.00200401 102.103093,4.06212425 L106.154639,8 L102.103093,11.9378758 C102.041237,11.997996 102,12.0881764 102,12.1683367 C102,12.258517 102.041237,12.3386774 102.103093,12.3987976 L102.618557,12.8997996 C102.680412,12.9599198 102.773196,13 102.85567,13 C102.938144,13 103.030928,12.9599198 103.092784,12.8997996 L107.896907,8.23046092 C107.958763,8.17034068 108,8.08016032 108,8 Z" id="Chevron"></path>
            </g>
        </g>
    </g>
</svg>